<svg xmlns="http://www.w3.org/2000/svg" width="29.746" height="25.446" viewBox="0 0 29.746 25.446">
  <g id="baby_blue_learn" transform="translate(0 -37)">
    <g id="Group_145" data-name="Group 145" transform="translate(0 37)">
      <path id="Path_627" data-name="Path 627" d="M28.5,58.67h-.873a1.588,1.588,0,0,0,.176-.727v-15.1a1.6,1.6,0,0,0-1.6-1.6H23.849v-.532a.762.762,0,0,0-.761-.761h-.721V37.761a.761.761,0,0,0-1.01-.719l-1.372.475a.436.436,0,0,0,.285.824l1.226-.424V48.4l-6.187,2.139V40.055l3.2-1.108a.436.436,0,0,0-.285-.824l-3.354,1.16L8.389,37.042a.761.761,0,0,0-1.01.719v2.186H6.658a.762.762,0,0,0-.761.761v.533H3.544a1.6,1.6,0,0,0-1.6,1.6v1.55a.436.436,0,0,0,.871,0V42.839a.727.727,0,0,1,.726-.726H5.9v.871H4.125a.436.436,0,0,0-.436.436V57.363a.436.436,0,0,0,.436.436h21.5a.436.436,0,0,0,.436-.436V43.419a.436.436,0,0,0-.436-.436H23.849v-.871H26.2a.727.727,0,0,1,.726.726v15.1a.727.727,0,0,1-.726.726H3.545a.727.727,0,0,1-.726-.726V46.253a.436.436,0,0,0-.871,0V57.944a1.587,1.587,0,0,0,.175.726H1.249A1.251,1.251,0,0,0,0,59.919V61.2a1.251,1.251,0,0,0,1.249,1.249H18.572a.436.436,0,1,0,0-.871H1.249A.378.378,0,0,1,.871,61.2V59.919a.378.378,0,0,1,.378-.378h10.69v.306a1.089,1.089,0,0,0,1.088,1.088h3.691a1.089,1.089,0,0,0,1.088-1.088v-.306H28.5a.378.378,0,0,1,.378.378V61.2a.378.378,0,0,1-.378.378H20.475a.436.436,0,1,0,0,.871H28.5A1.251,1.251,0,0,0,29.746,61.2V59.919A1.251,1.251,0,0,0,28.5,58.67Zm-6.642-9.477a.762.762,0,0,0,.512-.719V40.819h.611v9.892H17.466ZM8.251,37.916l6.187,2.139V50.535L8.251,48.4Zm-1.482,2.9h.611v7.655a.762.762,0,0,0,.512.719l4.388,1.517H6.768Zm18.416,3.036V56.926H4.561V43.856H5.9v6.965a.762.762,0,0,0,.761.761h16.43a.762.762,0,0,0,.761-.761V43.855ZM16.935,59.848a.217.217,0,0,1-.217.217H13.027a.217.217,0,0,1-.217-.217v-.306h4.125Z" transform="translate(0 -37)" fill="#009ccd"/>
      <path id="Path_628" data-name="Path 628" d="M161.871,309.387H150.425a.436.436,0,1,0,0,.871h11.446a.436.436,0,1,0,0-.871Z" transform="translate(-141.275 -293.562)" fill="#009ccd"/>
      <path id="Path_629" data-name="Path 629" d="M157.848,341.2h-7.423a.436.436,0,1,0,0,.871h7.423a.436.436,0,1,0,0-.871Z" transform="translate(-141.275 -323.529)" fill="#009ccd"/>
    </g>
  </g>
</svg>
