<svg xmlns="http://www.w3.org/2000/svg" width="51.434" height="44" viewBox="0 0 51.434 44">
  <g id="black_learn" transform="translate(0 -37)">
    <g id="Group_145" data-name="Group 145" transform="translate(0 37)">
      <path id="Path_627" data-name="Path 627" d="M49.274,74.47H47.765a2.745,2.745,0,0,0,.3-1.257V47.1a2.766,2.766,0,0,0-2.763-2.763H41.238v-.92A1.317,1.317,0,0,0,39.922,42.1H38.675V38.316a1.316,1.316,0,0,0-1.747-1.244l-2.373.821a.753.753,0,0,0,.492,1.424l2.12-.733V56.7l-10.7,3.7V42.283l5.539-1.915a.753.753,0,1,0-.492-1.424l-5.8,2.006L14.506,37.072a1.316,1.316,0,0,0-1.747,1.244V42.1H11.512A1.317,1.317,0,0,0,10.2,43.412v.921H6.128A2.766,2.766,0,0,0,3.365,47.1v2.679a.753.753,0,0,0,1.507,0V47.1a1.257,1.257,0,0,1,1.256-1.256H10.2v1.507H7.132a.754.754,0,0,0-.753.753V72.21a.753.753,0,0,0,.753.753H44.3a.753.753,0,0,0,.753-.753V48.1a.753.753,0,0,0-.753-.753H41.238V45.84h4.068A1.257,1.257,0,0,1,46.561,47.1V73.214a1.257,1.257,0,0,1-1.256,1.256H6.129a1.257,1.257,0,0,1-1.256-1.256V53a.753.753,0,0,0-1.507,0V73.215a2.743,2.743,0,0,0,.3,1.256H2.16A2.162,2.162,0,0,0,0,76.63v2.21A2.162,2.162,0,0,0,2.16,81H32.114a.753.753,0,1,0,0-1.507H2.16a.654.654,0,0,1-.653-.653V76.63a.654.654,0,0,1,.653-.653H20.644v.529a1.884,1.884,0,0,0,1.882,1.882h6.383a1.884,1.884,0,0,0,1.882-1.882v-.529H49.274a.654.654,0,0,1,.653.653v2.21a.654.654,0,0,1-.653.653H35.4A.753.753,0,1,0,35.4,81H49.274a2.162,2.162,0,0,0,2.16-2.16V76.63a2.162,2.162,0,0,0-2.16-2.16ZM37.789,58.083a1.317,1.317,0,0,0,.886-1.244V43.6h1.056v17.1H30.2Zm-23.523-19.5,10.7,3.7V60.4l-10.7-3.7ZM11.7,43.6h1.056V56.84a1.317,1.317,0,0,0,.886,1.244l7.588,2.624H11.7Zm31.844,5.25v22.6H7.887v-22.6H10.2V60.9a1.317,1.317,0,0,0,1.316,1.316H39.922A1.317,1.317,0,0,0,41.238,60.9V48.853ZM29.283,76.507a.375.375,0,0,1-.375.375H22.526a.375.375,0,0,1-.375-.375v-.529h7.132Z" transform="translate(0 -37)"/>
      <path id="Path_628" data-name="Path 628" d="M170.535,309.387H150.742a.753.753,0,1,0,0,1.507h19.792a.753.753,0,0,0,0-1.507Z" transform="translate(-134.922 -282.024)"/>
      <path id="Path_629" data-name="Path 629" d="M163.578,341.2H150.742a.753.753,0,1,0,0,1.507h12.836a.753.753,0,1,0,0-1.507Z" transform="translate(-134.922 -310.643)"/>
    </g>
  </g>
</svg>
