<svg height="17.995" viewBox="0 0 17.995 17.995" width="17.995" xmlns="http://www.w3.org/2000/svg"><path d="m290.162 197.9a.3.3 0 0 0 .4.131 25.714 25.714 0 0 1 2.654-1.181.3.3 0 0 0 -.181-.572 25.72 25.72 0 0 0 -2.745 1.219.3.3 0 0 0 -.128.403z" transform="translate(-279.933 -189.368)"/><path d="m290.43 95.667a.3.3 0 0 0 .136-.033 25.711 25.711 0 0 1 2.654-1.181.3.3 0 0 0 -.181-.572 25.731 25.731 0 0 0 -2.745 1.219.3.3 0 0 0 .136.567z" transform="translate(-279.933 -90.568)"/><path d="m17.7 4.5a.3.3 0 0 0 -.3.3v11.7a.9.9 0 0 1 -.9.9h-7.2v-.7a8.838 8.838 0 0 1 2.7-.5 15.47 15.47 0 0 1 4.4.585.3.3 0 0 0 .4-.285v-13.2a.3.3 0 0 0 -.235-.293s-.235-.052-.637-.126a.3.3 0 0 0 -.109.59c.153.028.282.053.381.073v12.556a16.938 16.938 0 0 0 -4.2-.5 9.422 9.422 0 0 0 -2.987.575 7.026 7.026 0 0 0 -2.713-.575 20.211 20.211 0 0 0 -4.5.514v-12.583a19.741 19.741 0 0 1 4.5-.531 6.5 6.5 0 0 1 2.4.494v11.806a.3.3 0 0 0 .454.257 34.336 34.336 0 0 1 5.639-2.672.3.3 0 0 0 .207-.285v-12.3a.3.3 0 0 0 -.405-.281 31.9 31.9 0 0 0 -4.855 2.426.3.3 0 0 0 .318.509 32.055 32.055 0 0 1 4.342-2.216v11.644a33.61 33.61 0 0 0 -5.1 2.393v-11.475a.3.3 0 0 0 -.166-.268 6.945 6.945 0 0 0 -2.834-.632 19.465 19.465 0 0 0 -4.881.612.3.3 0 0 0 -.219.288v13.2a.3.3 0 0 0 .3.3.3.3 0 0 0 .082-.012 19.266 19.266 0 0 1 4.718-.588 6.488 6.488 0 0 1 2.4.495v.705h-7.2a.9.9 0 0 1 -.9-.9v-11.7a.3.3 0 1 0 -.6 0v11.7a1.5 1.5 0 0 0 1.5 1.5h15a1.5 1.5 0 0 0 1.5-1.5v-11.7a.3.3 0 0 0 -.3-.3z" transform="translate(-.002)"/><path d="m290.162 146.7a.3.3 0 0 0 .4.131 25.7 25.7 0 0 1 2.654-1.181.3.3 0 0 0 -.181-.572 25.721 25.721 0 0 0 -2.745 1.219.3.3 0 0 0 -.128.403z" transform="translate(-279.933 -139.968)"/><path d="m290.162 249.1a.3.3 0 0 0 .4.131 25.716 25.716 0 0 1 2.654-1.181.3.3 0 0 0 -.181-.572 25.715 25.715 0 0 0 -2.745 1.219.3.3 0 0 0 -.128.403z" transform="translate(-279.933 -238.769)"/><path d="m89.6 153.81a9.519 9.519 0 0 0 -4.045.143.3.3 0 0 0 .077.59.305.305 0 0 0 .078-.01 9.039 9.039 0 0 1 3.753-.138.3.3 0 1 0 .137-.584z" transform="translate(-82.334 -148.245)"/><path d="m89.6 205.014a9.524 9.524 0 0 0 -4.045.143.3.3 0 0 0 .077.59.305.305 0 0 0 .078-.01 9.039 9.039 0 0 1 3.753-.138.3.3 0 1 0 .137-.584z" transform="translate(-82.334 -197.649)"/><path d="m290.162 300.3a.3.3 0 0 0 .4.131 25.71 25.71 0 0 1 2.654-1.181.3.3 0 0 0 -.181-.572 25.728 25.728 0 0 0 -2.745 1.219.3.3 0 0 0 -.128.403z" transform="translate(-279.933 -288.169)"/><path d="m89.6 256.213a9.518 9.518 0 0 0 -4.045.143.3.3 0 0 0 .077.59.305.305 0 0 0 .078-.01 9.038 9.038 0 0 1 3.753-.138.3.3 0 1 0 .137-.584z" transform="translate(-82.334 -247.048)"/><path d="m89.6 358.61a9.518 9.518 0 0 0 -4.045.143.3.3 0 0 0 .077.59.305.305 0 0 0 .078-.011 9.038 9.038 0 0 1 3.753-.138.3.3 0 1 0 .137-.584z" transform="translate(-82.334 -345.847)"/><path d="m89.6 307.409a9.512 9.512 0 0 0 -4.045.143.3.3 0 0 0 .077.59.305.305 0 0 0 .078-.01 9.038 9.038 0 0 1 3.753-.138.3.3 0 1 0 .137-.584z" transform="translate(-82.334 -296.445)"/></svg>