<svg xmlns="http://www.w3.org/2000/svg" width="19.295" height="16.581" viewBox="0 0 19.295 16.581">
  <g id="cart" transform="translate(0 -36.002)">
    <path id="Path_308" data-name="Path 308" d="M18.993,38.616a1.351,1.351,0,0,0-1.055-.5H3.231L3.1,37.171A1.362,1.362,0,0,0,1.756,36H.6a.6.6,0,1,0,0,1.206H1.756a.151.151,0,0,1,.149.13L3.533,49a1.362,1.362,0,0,0,1.344,1.169H5.53a1.809,1.809,0,1,0,3.41,0h3.222a1.809,1.809,0,1,0,3.41,0h1.31a.6.6,0,1,0,0-1.206H4.876a.151.151,0,0,1-.149-.13l-.15-1.076H16.451a1.364,1.364,0,0,0,1.327-1.072l1.486-6.934a1.351,1.351,0,0,0-.271-1.137ZM7.838,50.774a.6.6,0,1,1-.6-.6A.6.6,0,0,1,7.838,50.774Zm6.632,0a.6.6,0,1,1-.6-.6A.6.6,0,0,1,14.471,50.774ZM18.085,39.5,16.6,46.434a.152.152,0,0,1-.148.119H4.409L3.4,39.318H17.937a.151.151,0,0,1,.148.182Z"/>
  </g>
</svg>
