<svg xmlns="http://www.w3.org/2000/svg" width="51.132" height="51.501" viewBox="0 0 51.132 51.501">
  <g id="computer" transform="translate(0 0.499)">
    <ellipse id="Ellipse_19" data-name="Ellipse 19" cx="1" cy="0.5" rx="1" ry="0.5" transform="translate(36.566 22.501)" fill="#ff7600"/>
    <circle id="Ellipse_20" data-name="Ellipse 20" cx="1" cy="1" r="1" transform="translate(10.566 18.501)" fill="#ff7600"/>
    <path id="Path_780" data-name="Path 780" d="M84.975,63H69a3,3,0,0,0-3,3V77.98a3,3,0,0,0,3,3h1v3a1,1,0,0,0,1.7.706l3.7-3.7h6.577v1a3,3,0,0,0,3,3h9.573l3.7,3.7a1,1,0,0,0,1.7-.706v-3h1a3,3,0,0,0,3-3V69.991a3,3,0,0,0-3-3H87.971V66a3,3,0,0,0-3-3ZM74.988,78.979a1,1,0,0,0-.706.293l-2.29,2.29V79.977a1,1,0,0,0-1-1H69a1,1,0,0,1-1-1V66a1,1,0,0,1,1-1H84.975a1,1,0,0,1,1,1v1h-1a3,3,0,0,0-3,3v8.988Zm26.964-8.988V81.975a1,1,0,0,1-1,1h-2a1,1,0,0,0-1,1v1.584l-2.29-2.29a1,1,0,0,0-.706-.293H84.975a1,1,0,0,1-1-1V69.991a1,1,0,0,1,1-1h15.979A1,1,0,0,1,101.952,69.991Z" transform="translate(-59.409 -56.838)"/>
    <path id="Path_781" data-name="Path 781" d="M107,103a1,1,0,0,0-1,1v3.995a1,1,0,1,0,2,0V104A1,1,0,0,0,107,103Z" transform="translate(-95.414 -92.843)" fill="#ff7600"/>
    <path id="Path_782" data-name="Path 782" d="M347,146.995a1,1,0,0,0,1-1,1,1,0,1,1,1.462.885A2.854,2.854,0,0,0,348,149.445a1,1,0,1,0,2,0,.9.9,0,0,1,.4-.8A3,3,0,1,0,346,146,1,1,0,0,0,347,146.995Z" transform="translate(-311.446 -128.848)" fill="#ff7600"/>
    <path id="Path_783" data-name="Path 783" d="M150.993,103H147a1,1,0,0,0,0,2h3.995a1,1,0,0,0,0-2Z" transform="translate(-131.419 -92.843)" fill="#ff7600"/>
    <path id="Path_784" data-name="Path 784" d="M266,144a1,1,0,0,0,1,1h3.995a1,1,0,1,0,0-2H267A1,1,0,0,0,266,144Z" transform="translate(-239.436 -128.848)" fill="#ff7600"/>
    <path id="Path_785" data-name="Path 785" d="M270.993,183H267a1,1,0,1,0,0,2h3.995a1,1,0,1,0,0-2Z" transform="translate(-239.436 -164.854)" fill="#ff7600"/>
    <path id="Path_786" data-name="Path 786" d="M270.993,223H267a1,1,0,1,0,0,2h3.995a1,1,0,1,0,0-2Z" transform="translate(-239.436 -200.859)" fill="#ff7600"/>
    <path id="Path_787" data-name="Path 787" d="M150.993,143H147a1,1,0,0,0,0,2h3.995a1,1,0,0,0,0-2Z" transform="translate(-131.419 -128.848)" fill="#ff7600"/>
    <path id="Path_788" data-name="Path 788" d="M150.993,183H147a1,1,0,0,0,0,2h3.995a1,1,0,0,0,0-2Z" transform="translate(-131.419 -164.854)" fill="#ff7600"/>
    <path id="Path_789" data-name="Path 789" d="M50.133,0H30.06a1,1,0,0,0,0,2H49.134V36.551H2V2H21.072a1,1,0,0,0,0-2H1A1,1,0,0,0,0,1V37.55a1,1,0,0,0,1,1H20.551a7.806,7.806,0,0,1-1.234,4.531,4.911,4.911,0,0,1-2.623,1.446c-1.831.566-4.111,1.27-4.111,5.608a1,1,0,0,0,1,1H37.55a1,1,0,0,0,1-1c0-4.338-2.279-5.042-4.111-5.608a4.912,4.912,0,0,1-2.623-1.446,7.805,7.805,0,0,1-1.234-4.53H50.133a1,1,0,0,0,1-1V1A1,1,0,0,0,50.133,0ZM30.26,44.332a6.745,6.745,0,0,0,3.589,2.1c1.515.468,2.438.753,2.654,2.7H14.629c.216-1.948,1.139-2.233,2.654-2.7a6.746,6.746,0,0,0,3.589-2.1c1.033-1.281,1.573-3.135,1.678-5.784h6.031c.1,2.649.645,4.5,1.678,5.784Z" transform="translate(0 -0.129)"/>
    <circle id="Ellipse_21" data-name="Ellipse 21" cx="1" cy="1" r="1" transform="translate(24.566 -0.499)" fill="#ff7600"/>
  </g>
</svg>
