<svg xmlns="http://www.w3.org/2000/svg" width="53.426" height="53.368" viewBox="0 0 53.426 53.368">
  <g id="data_icon" transform="translate(0 -0.5)">
    <path id="Path_321" data-name="Path 321" d="M35.954,133.508A.782.782,0,1,0,37.06,132.4l-1.9-1.9,1.9-1.9a.782.782,0,0,0-1.106-1.106L33.5,129.951a.782.782,0,0,0,0,1.106Zm0,0" transform="translate(-29.801 -113.542)" fill="#ff7600"/>
    <path id="Path_322" data-name="Path 322" d="M115.059,130.5l-1.9,1.9a.782.782,0,1,0,1.106,1.106l2.452-2.452a.782.782,0,0,0,0-1.105l-2.452-2.452a.782.782,0,0,0-1.105,1.106Zm0,0" transform="translate(-101.147 -113.539)" fill="#ff7600"/>
    <path id="Path_323" data-name="Path 323" d="M76.913,133.678a.782.782,0,0,0,1.014-.442l1.926-4.9a.782.782,0,1,0-1.455-.572l-1.926,4.9A.782.782,0,0,0,76.913,133.678Zm0,0" transform="translate(-68.443 -113.537)" fill="#ff7600"/>
    <path id="Path_324" data-name="Path 324" d="M38.3,219.779h5.268a.782.782,0,0,0,0-1.564H38.3a.782.782,0,0,0,0,1.564Zm0,0" transform="translate(-33.601 -194.997)"/>
    <path id="Path_325" data-name="Path 325" d="M125.554,218.215h-9.261a.782.782,0,0,0,0,1.564h9.261a.782.782,0,1,0,0-1.564Zm0,0" transform="translate(-103.458 -194.997)"/>
    <path id="Path_326" data-name="Path 326" d="M38.3,251.384h2.244a.782.782,0,0,0,0-1.564H38.3a.782.782,0,0,0,0,1.564Zm0,0" transform="translate(-33.601 -223.304)"/>
    <path id="Path_327" data-name="Path 327" d="M177.629,249.82a.782.782,0,0,0,0,1.564H179a.782.782,0,1,0,0-1.564Zm0,0" transform="translate(-158.394 -223.304)"/>
    <path id="Path_328" data-name="Path 328" d="M93.588,250.6a.782.782,0,0,0-.782-.782H86.094a.782.782,0,0,0,0,1.564h6.712A.782.782,0,0,0,93.588,250.6Zm0,0" transform="translate(-76.41 -223.304)"/>
    <path id="Path_329" data-name="Path 329" d="M213.7,250.6a.782.782,0,0,0,.782.782h2.559a.782.782,0,1,0,0-1.564h-2.559A.782.782,0,0,0,213.7,250.6Zm0,0" transform="translate(-191.404 -223.304)"/>
    <path id="Path_330" data-name="Path 330" d="M166.181,150.841h2.7a.782.782,0,1,0,0-1.564h-2.7a.782.782,0,1,0,0,1.564Zm0,0" transform="translate(-148.139 -133.253)"/>
    <path id="Path_331" data-name="Path 331" d="M221.028,150.841H237.5a.782.782,0,0,0,0-1.564H221.028a.782.782,0,1,0,0,1.564Zm0,0" transform="translate(-197.264 -133.253)"/>
    <path id="Path_332" data-name="Path 332" d="M297.638,182.246h-6.673a.782.782,0,0,0,0,1.564h6.673a.782.782,0,0,0,0-1.564Zm0,0" transform="translate(-259.903 -162.781)"/>
    <path id="Path_333" data-name="Path 333" d="M247.3,182.246h-2.294a.782.782,0,0,0,0,1.564H247.3a.782.782,0,0,0,0-1.564Zm0,0" transform="translate(-218.742 -162.781)"/>
    <path id="Path_334" data-name="Path 334" d="M166.181,183.81H171.8a.782.782,0,0,0,0-1.564h-5.619a.782.782,0,1,0,0,1.564Zm0,0" transform="translate(-148.139 -162.781)"/>
    <path id="Path_335" data-name="Path 335" d="M105.3,281.16h-5.267a.782.782,0,1,0,0,1.564H105.3a.782.782,0,1,0,0-1.564Zm0,0" transform="translate(-88.89 -251.374)"/>
    <path id="Path_336" data-name="Path 336" d="M42.344,281.16H38.3a.782.782,0,0,0,0,1.564h4.047a.782.782,0,0,0,0-1.564Zm0,0" transform="translate(-33.601 -251.374)"/>
    <path id="Path_337" data-name="Path 337" d="M182.952,281.16h-6.881a.782.782,0,1,0,0,1.564h6.881a.782.782,0,1,0,0-1.564Zm0,0" transform="translate(-156.998 -251.374)"/>
    <path id="Path_338" data-name="Path 338" d="M298.892,242.668h-3.763a.782.782,0,0,0,0,1.564h3.763a.782.782,0,0,0,0-1.564Zm0,0" transform="translate(-263.633 -216.898)"/>
    <path id="Path_339" data-name="Path 339" d="M393.758,244.232h5.312a.782.782,0,1,0,0-1.564h-5.312a.782.782,0,0,0,0,1.564Zm0,0" transform="translate(-351.97 -216.898)"/>
    <path id="Path_340" data-name="Path 340" d="M357.855,242.668h-1.217a.782.782,0,1,0,0,1.564h1.217a.782.782,0,0,0,0-1.564Zm0,0" transform="translate(-318.723 -216.898)"/>
    <path id="Path_341" data-name="Path 341" d="M295.129,325.892h3.763a.782.782,0,0,0,0-1.564h-3.763a.782.782,0,0,0,0,1.564Zm0,0" transform="translate(-263.633 -290.037)"/>
    <path id="Path_342" data-name="Path 342" d="M393.758,325.892h5.312a.782.782,0,1,0,0-1.564h-5.312a.782.782,0,0,0,0,1.564Zm0,0" transform="translate(-351.97 -290.037)"/>
    <path id="Path_343" data-name="Path 343" d="M356.641,325.892h1.217a.782.782,0,1,0,0-1.564h-1.217a.782.782,0,0,0,0,1.564Zm0,0" transform="translate(-318.726 -290.037)"/>
    <path id="Path_344" data-name="Path 344" d="M298.892,405.988h-3.763a.782.782,0,1,0,0,1.564h3.763a.782.782,0,1,0,0-1.564Zm0,0" transform="translate(-263.633 -363.176)"/>
    <path id="Path_345" data-name="Path 345" d="M399.07,405.988h-5.312a.782.782,0,1,0,0,1.564h5.312a.782.782,0,1,0,0-1.564Zm0,0" transform="translate(-351.97 -363.176)"/>
    <path id="Path_346" data-name="Path 346" d="M357.855,405.988h-1.217a.782.782,0,1,0,0,1.564h1.217a.782.782,0,1,0,0-1.564Zm0,0" transform="translate(-318.723 -363.176)"/>
    <path id="Path_347" data-name="Path 347" d="M49.985.5H3.441A3.445,3.445,0,0,0,0,3.941V41.775a3.445,3.445,0,0,0,3.441,3.441H6.384a.782.782,0,0,0,0-1.564H3.441a1.879,1.879,0,0,1-1.877-1.877V38.808H30.051v1.348h-.62a1.539,1.539,0,0,0-1.538,1.538v1.958H11.138a.782.782,0,0,0,0,1.564h7.518v2.8H16.3a2.859,2.859,0,0,0-2.856,2.856v1.689a1.3,1.3,0,0,0,1.3,1.3H38.625a1.3,1.3,0,0,0,1.3-1.3V50.876a2.859,2.859,0,0,0-2.856-2.856H34.711v-.988H49.166A1.539,1.539,0,0,0,50.7,45.494v-.368a3.446,3.446,0,0,0,2.663-3.351l.059-37.834A3.444,3.444,0,0,0,49.985.5ZM29.457,36.947V33.2H49.14v3.748Zm2.157-5.312V29.99H46.982v1.645ZM46.982,38.51v1.646H31.614V38.51ZM20.219,45.216h7.673v.278a1.539,1.539,0,0,0,1.538,1.538h3.717v.988H20.219Zm16.853,4.368a1.294,1.294,0,0,1,1.292,1.292V52.3H15V50.876A1.294,1.294,0,0,1,16.3,49.584ZM49.14,45.468H29.457V41.72H49.14ZM51.8,41.775a1.878,1.878,0,0,1-1.1,1.706V41.693a1.54,1.54,0,0,0-1.538-1.538h-.62V38.808H51.8Zm0-4.53H50.678c.016-.088.026-4.072.026-4.072a1.54,1.54,0,0,0-1.538-1.538h-.62V29.99h.62A1.54,1.54,0,0,0,50.7,28.452v-3.8a1.54,1.54,0,0,0-1.538-1.538H44.749a.782.782,0,0,0,0,1.564h4.39v3.748H29.457V24.678H39.884a.782.782,0,0,0,0-1.564H29.431a1.54,1.54,0,0,0-1.538,1.538v3.8a1.54,1.54,0,0,0,1.538,1.538h.62v1.645h-.62a1.54,1.54,0,0,0-1.538,1.538s.01,3.984.026,4.072H1.564V11.136H51.8Zm0-27.673H1.621V3.941A1.879,1.879,0,0,1,3.5,2.064H49.926A1.879,1.879,0,0,1,51.8,3.941Zm0,0"/>
    <path id="Path_348" data-name="Path 348" d="M35.568,29.262a2.295,2.295,0,1,0,2.295,2.294A2.3,2.3,0,0,0,35.568,29.262Zm0,3.025a.731.731,0,1,1,.731-.731A.732.732,0,0,1,35.568,32.287Zm0,0" transform="translate(-29.801 -25.76)" fill="#ff7600"/>
    <path id="Path_349" data-name="Path 349" d="M91.553,29.262a2.295,2.295,0,1,0,2.294,2.294A2.3,2.3,0,0,0,91.553,29.262Zm0,3.025a.731.731,0,1,1,.731-.731A.731.731,0,0,1,91.553,32.287Zm0,0" transform="translate(-79.944 -25.76)" fill="#ff7600"/>
    <path id="Path_350" data-name="Path 350" d="M147.541,29.262a2.295,2.295,0,1,0,2.295,2.294A2.3,2.3,0,0,0,147.541,29.262Zm0,3.025a.731.731,0,1,1,.731-.731A.732.732,0,0,1,147.541,32.287Zm0,0" transform="translate(-130.09 -25.76)" fill="#ff7600"/>
  </g>
</svg>
