<svg xmlns="http://www.w3.org/2000/svg" width="17.566" height="17.567" viewBox="0 0 17.566 17.567">
  <g id="goal" transform="translate(-0.002 -1)">
    <g id="Group_179" data-name="Group 179" transform="translate(0.002 1)">
      <g id="Group_178" data-name="Group 178" transform="translate(0 0)">
        <path id="Path_691" data-name="Path 691" d="M2.93,410.605H.588a.586.586,0,0,0-.586.586v2.342a.586.586,0,0,0,.586.586H2.93a.586.586,0,0,0,.586-.586v-2.342A.586.586,0,0,0,2.93,410.605ZM.588,413.533v-2.342H2.93v2.342Z" transform="translate(-0.002 -396.552)"/>
        <path id="Path_692" data-name="Path 692" d="M139.463,359.405h-2.342a.586.586,0,0,0-.586.586v4.1a.586.586,0,0,0,.586.586h2.342a.586.586,0,0,0,.586-.586v-4.1A.586.586,0,0,0,139.463,359.405Zm-2.342,4.684v-4.1h2.342v4.1Z" transform="translate(-131.851 -347.108)"/>
        <path id="Path_693" data-name="Path 693" d="M276,274.072h-2.342a.586.586,0,0,0-.586.586v7.027a.586.586,0,0,0,.586.586H276a.586.586,0,0,0,.586-.586v-7.027A.586.586,0,0,0,276,274.072Zm-2.342,7.612v-7.027H276v7.027Z" transform="translate(-263.7 -264.703)"/>
        <path id="Path_694" data-name="Path 694" d="M255.962,8.612h-.293V1.873a.878.878,0,0,0-1.757,0v.006h-2.928a.586.586,0,0,0-.586.586V3.05h-2.635a.293.293,0,0,0-.225.48L248.847,5.1l-1.308,1.569a.293.293,0,0,0,.225.48h4.392a.586.586,0,0,0,.586-.586V5.977h1.171V8.612h-.293a.586.586,0,0,0-.586.586v8.783a.586.586,0,0,0,.586.586h2.342a.586.586,0,0,0,.586-.586V9.2A.586.586,0,0,0,255.962,8.612ZM254.5,5.685V1.873a.293.293,0,0,1,.586,0V8.612H254.5V5.685Zm-2.342.878h-3.767l1.064-1.276a.293.293,0,0,0,0-.375l-1.064-1.276h2.01V5.392a.586.586,0,0,0,.586.586h1.171v.586Zm-1.171-1.171V2.464h2.928V5.392Zm2.635,12.589V9.2h2.342v8.783Z" transform="translate(-238.981 -1)"/>
      </g>
    </g>
  </g>
</svg>
