<svg xmlns="http://www.w3.org/2000/svg" width="18.897" height="18.897" viewBox="0 0 18.897 18.897">
  <g id="google" transform="translate(0 0)">
    <path id="Path_592" data-name="Path 592" d="M251.965,198.213a9.424,9.424,0,0,0-.166-1.765.554.554,0,0,0-.544-.45h-8.7a.553.553,0,0,0-.554.554v3.322a.553.553,0,0,0,.554.554h4.465a4.958,4.958,0,0,1-1.112,1.463l3.129,3.129A9.377,9.377,0,0,0,251.965,198.213Z" transform="translate(-233.068 -188.765)" fill="#fff"/>
    <path id="Path_593" data-name="Path 593" d="M52.463,4.429a4.933,4.933,0,0,1,2.988,1,.553.553,0,0,0,.724-.051l2.363-2.363A.554.554,0,0,0,58.5,2.2,9.4,9.4,0,0,0,44.663,4.15l3.25,3.25A4.984,4.984,0,0,1,52.463,4.429Z" transform="translate(-43.015)" fill="#fff"/>
    <path id="Path_594" data-name="Path 594" d="M52.463,318.9a9.349,9.349,0,0,0,5.632-1.889l-3.188-3.188a4.96,4.96,0,0,1-6.995-2.323l-3.25,3.25A9.409,9.409,0,0,0,52.463,318.9Z" transform="translate(-43.015 -300.003)" fill="#fff"/>
    <path id="Path_595" data-name="Path 595" d="M4.509,145.34a3.984,3.984,0,0,1,0-1.595l-3.474-3.474a9.326,9.326,0,0,0,0,8.542Z" transform="translate(0 -135.094)" fill="#fff"/>
  </g>
</svg>
