<svg xmlns="http://www.w3.org/2000/svg" width="37.057" height="31.701" viewBox="0 0 37.057 31.701">
  <g id="gray_online_learning" transform="translate(0 -37)">
    <g id="Group_161" data-name="Group 161" transform="translate(0 37)">
      <path id="Path_645" data-name="Path 645" d="M35.5,64H34.414a1.978,1.978,0,0,0,.219-.905V44.273a1.993,1.993,0,0,0-1.99-1.99H29.711V41.62a.949.949,0,0,0-.948-.948h-.9V37.948a.948.948,0,0,0-1.258-.9l-1.71.591a.543.543,0,1,0,.355,1.026l1.528-.528V51.2l-7.707,2.665V40.806l3.991-1.38a.543.543,0,0,0-.355-1.026l-4.179,1.445-8.077-2.793a.948.948,0,0,0-1.258.9v2.724h-.9a.949.949,0,0,0-.948.948v.664H4.415a1.993,1.993,0,0,0-1.99,1.99V46.2a.543.543,0,0,0,1.086,0v-1.93a.906.906,0,0,1,.9-.9H7.346v1.086H5.139A.543.543,0,0,0,4.6,45v17.37a.543.543,0,0,0,.543.543H31.919a.543.543,0,0,0,.543-.543V45a.543.543,0,0,0-.543-.543H29.711V43.369h2.931a.906.906,0,0,1,.9.9V63.091a.906.906,0,0,1-.9.9H4.416a.906.906,0,0,1-.9-.9V48.527a.543.543,0,0,0-1.086,0V63.092a1.977,1.977,0,0,0,.218.9H1.556A1.558,1.558,0,0,0,0,65.553v1.592A1.558,1.558,0,0,0,1.556,68.7H23.138a.543.543,0,0,0,0-1.086H1.556a.471.471,0,0,1-.47-.47V65.553a.471.471,0,0,1,.47-.47H14.874v.381a1.357,1.357,0,0,0,1.356,1.356h4.6a1.357,1.357,0,0,0,1.356-1.356v-.381H35.5a.471.471,0,0,1,.47.47v1.592a.471.471,0,0,1-.47.47H25.508a.543.543,0,0,0,0,1.086H35.5a1.558,1.558,0,0,0,1.556-1.556V65.553A1.558,1.558,0,0,0,35.5,64ZM27.226,52.19a.949.949,0,0,0,.638-.9V41.758h.761V54.081H21.759ZM10.279,38.141l7.707,2.665V53.862L10.279,51.2ZM8.432,41.758h.761v9.537a.949.949,0,0,0,.638.9L15.3,54.081H8.432ZM31.375,45.54V61.825H5.682V45.541H7.346v8.678a.949.949,0,0,0,.948.948H28.763a.949.949,0,0,0,.948-.948V45.54ZM21.1,65.464a.27.27,0,0,1-.27.27h-4.6a.27.27,0,0,1-.27-.27v-.381H21.1Z" transform="translate(0 -37)" fill="#969696"/>
      <path id="Path_646" data-name="Path 646" d="M164.792,309.387h-14.26a.543.543,0,1,0,0,1.086h14.26a.543.543,0,1,0,0-1.086Z" transform="translate(-139.133 -289.672)" fill="#969696"/>
      <path id="Path_647" data-name="Path 647" d="M159.78,341.2h-9.248a.543.543,0,1,0,0,1.086h9.248a.543.543,0,1,0,0-1.086Z" transform="translate(-139.133 -319.185)" fill="#969696"/>
    </g>
  </g>
</svg>
