<svg xmlns="http://www.w3.org/2000/svg" width="15.245" height="14.568" viewBox="0 0 15.245 14.568">
  <path id="heart" d="M7.623,14.568a.859.859,0,0,1-.589-.238c-.616-.578-1.21-1.122-1.734-1.6l0,0A33.331,33.331,0,0,1,1.512,8.91,6.346,6.346,0,0,1,0,4.921a5.342,5.342,0,0,1,1.209-3.5A3.974,3.974,0,0,1,4.259,0a3.67,3.67,0,0,1,2.4.888,5.121,5.121,0,0,1,.968,1.086A5.121,5.121,0,0,1,8.591.888,3.67,3.67,0,0,1,10.986,0a3.975,3.975,0,0,1,3.049,1.426,5.342,5.342,0,0,1,1.209,3.5A6.346,6.346,0,0,1,13.733,8.91a33.323,33.323,0,0,1-3.785,3.816c-.525.48-1.119,1.025-1.737,1.6A.86.86,0,0,1,7.623,14.568ZM4.259.959A3.118,3.118,0,0,0,1.866,2.076,4.348,4.348,0,0,0,.893,4.921,5.335,5.335,0,0,0,2.2,8.3,32.792,32.792,0,0,0,5.876,12l0,0C6.4,12.48,7,13.025,7.621,13.608c.624-.584,1.221-1.13,1.748-1.612a32.8,32.8,0,0,0,3.676-3.7,5.336,5.336,0,0,0,1.307-3.377,4.348,4.348,0,0,0-.973-2.845A3.118,3.118,0,0,0,10.986.959a2.835,2.835,0,0,0-1.849.688A4.583,4.583,0,0,0,8.107,2.927a.545.545,0,0,1-.968,0A4.579,4.579,0,0,0,6.108,1.647,2.835,2.835,0,0,0,4.259.959Zm0,0"/>
</svg>
