<svg xmlns="http://www.w3.org/2000/svg" width="41.529" height="41.599" viewBox="0 0 41.529 41.599">
  <g id="hi" transform="translate(-0.43)">
    <path id="Path_599" data-name="Path 599" d="M43.368,289.665a5.271,5.271,0,0,1-1.093-3.2v-2.876a.609.609,0,0,0-1.218,0v2.876A6.5,6.5,0,0,0,42.4,290.41l2.2,2.847v7.727a.609.609,0,1,0,1.218,0v-7.935a.609.609,0,0,0-.127-.372Z" transform="translate(-37.327 -259.994)"/>
    <path id="Path_600" data-name="Path 600" d="M62.131,4.705a2.888,2.888,0,0,0-1.687.542v-.24a2.9,2.9,0,0,0-4.6-2.355,2.9,2.9,0,0,0-5.8.252v.354a2.9,2.9,0,0,0-4.591,2.363v7.5a3.024,3.024,0,0,0-4.4,2.7V21a.609.609,0,0,0,1.218,0v-5.18a1.808,1.808,0,0,1,3.615,0v4.753a.609.609,0,0,0,.389.568l1.383.535A6.677,6.677,0,0,1,51.93,27.9a.609.609,0,0,0,1.218,0A7.9,7.9,0,0,0,48.1,20.535l-.994-.384V15.816a3.008,3.008,0,0,0-.437-1.565V5.622a1.687,1.687,0,0,1,3.373,0V15.911a.609.609,0,0,0,1.218,0V2.9a1.687,1.687,0,0,1,3.373,0V15.911a.609.609,0,0,0,1.218,0V5.008a1.687,1.687,0,1,1,3.373,0v10.9a.609.609,0,1,0,1.218,0V7.61a1.687,1.687,0,0,1,3.373,0V22.293a.609.609,0,1,0,1.218,0V7.61a2.908,2.908,0,0,0-2.9-2.9Z" transform="translate(-37.326)"/>
    <path id="Path_601" data-name="Path 601" d="M295.964,298.958a.609.609,0,0,0-.609.609v3.108a7.392,7.392,0,0,1-1.3,4.2l-.887,1.293a.61.61,0,0,0-.107.345v7.126a.609.609,0,1,0,1.218,0V308.7l.78-1.137a8.6,8.6,0,0,0,1.516-4.888v-3.108A.609.609,0,0,0,295.964,298.958Z" transform="translate(-268.863 -274.678)"/>
    <path id="Path_602" data-name="Path 602" d="M36.8,67.211a.609.609,0,0,0,1.012-.678l-.025-.037a1.554,1.554,0,0,1,.018-1.745.609.609,0,1,0-1-.7,2.78,2.78,0,0,0-.032,3.122Z" transform="translate(-32.968 -58.611)"/>
    <path id="Path_603" data-name="Path 603" d="M2.466,46.993a4.863,4.863,0,0,1,.055-5.46.609.609,0,0,0-1-.7,6.05,6.05,0,0,0-.069,6.837l.062.093a.609.609,0,0,0,1.012-.678Z" transform="translate(0 -37.279)"/>
    <path id="Path_604" data-name="Path 604" d="M363.925,326.464a.609.609,0,0,0-1.012.678l.025.037a1.554,1.554,0,0,1-.018,1.745.609.609,0,1,0,1,.7,2.78,2.78,0,0,0,.032-3.122Z" transform="translate(-332.949 -299.702)"/>
    <path id="Path_605" data-name="Path 605" d="M392.446,303.246a.609.609,0,0,0-1.012.678l.062.093a4.863,4.863,0,0,1-.055,5.46.609.609,0,0,0,1,.7,6.05,6.05,0,0,0,.069-6.837Z" transform="translate(-359.154 -278.37)"/>
    <path id="Path_606" data-name="Path 606" d="M363.814,17.663h-5.649a3.562,3.562,0,0,0-3.558,3.558v6.934a.964.964,0,0,0,.618.9.976.976,0,0,0,.354.067.964.964,0,0,0,.712-.316l.9-.984h2.5a.609.609,0,1,0,0-1.218h-2.765a.609.609,0,0,0-.449.2l-.652.711v-6.3a2.342,2.342,0,0,1,2.34-2.34h5.649a2.342,2.342,0,0,1,2.34,2.34v3.048a2.342,2.342,0,0,1-2.34,2.34h-1.526a.609.609,0,1,0,0,1.218h1.526a3.562,3.562,0,0,0,3.558-3.558V21.221a3.562,3.562,0,0,0-3.558-3.558Z" transform="translate(-325.412 -16.228)"/>
    <path id="Path_607" data-name="Path 607" d="M393.427,51.483a.609.609,0,0,0-.609.609v1.254h-1.356V52.092a.609.609,0,0,0-1.218,0v3.727a.609.609,0,0,0,1.218,0V54.565h1.356v1.254a.609.609,0,0,0,1.218,0V52.092A.609.609,0,0,0,393.427,51.483Z" transform="translate(-358.155 -47.302)"/>
    <path id="Path_608" data-name="Path 608" d="M455.516,80.576a.609.609,0,0,0,1.218,0V79.037a.609.609,0,1,0-1.218,0Z" transform="translate(-418.126 -72.058)"/>
    <path id="Path_609" data-name="Path 609" d="M456.125,49.749a.609.609,0,0,0,.609-.609v-.473a.609.609,0,0,0-1.218,0v.473A.609.609,0,0,0,456.125,49.749Z" transform="translate(-418.126 -44.155)"/>
  </g>
</svg>
