<svg xmlns="http://www.w3.org/2000/svg" width="5.625" height="18" viewBox="0 0 5.625 18">
  <g id="info" transform="translate(-176)">
    <path id="Path_698" data-name="Path 698" d="M178.813,203.25A2.816,2.816,0,0,1,176,200.438v-5.625a2.813,2.813,0,0,1,5.625,0v5.625A2.816,2.816,0,0,1,178.813,203.25Zm0-10.125a1.689,1.689,0,0,0-1.687,1.688v5.625a1.687,1.687,0,0,0,3.375,0v-5.625A1.689,1.689,0,0,0,178.813,193.125Z" transform="translate(0 -185.25)" fill="#ff7600"/>
    <path id="Path_699" data-name="Path 699" d="M178.813,5.625a2.813,2.813,0,1,1,2.813-2.812A2.816,2.816,0,0,1,178.813,5.625Zm0-4.5A1.688,1.688,0,1,0,180.5,2.813,1.689,1.689,0,0,0,178.813,1.125Z" fill="#ff7600"/>
  </g>
</svg>
