<svg xmlns="http://www.w3.org/2000/svg" width="16.25" height="16.214" viewBox="0 0 16.25 16.214">
  <g id="linked" transform="translate(0 -0.341)">
    <path id="XMLID_802_" d="M8.451,99.73H5.189a.262.262,0,0,0-.262.262v10.48a.262.262,0,0,0,.262.262H8.451a.262.262,0,0,0,.262-.262V99.992A.262.262,0,0,0,8.451,99.73Z" transform="translate(-4.669 -94.179)" fill="#fff"/>
    <path id="XMLID_803_" d="M2.153.341A2.151,2.151,0,1,0,4.3,2.491,2.154,2.154,0,0,0,2.153.341Z" fill="#fff"/>
    <path id="XMLID_804_" d="M112.691,94.761a3.831,3.831,0,0,0-2.866,1.2v-.681a.262.262,0,0,0-.262-.262h-3.124a.262.262,0,0,0-.262.262v10.48a.262.262,0,0,0,.262.262h3.255a.262.262,0,0,0,.262-.262v-5.185c0-1.747.475-2.428,1.693-2.428,1.327,0,1.432,1.091,1.432,2.518v5.1a.262.262,0,0,0,.262.262H116.6a.262.262,0,0,0,.262-.262v-5.749C116.86,97.417,116.365,94.761,112.691,94.761Z" transform="translate(-100.61 -89.471)" fill="#fff"/>
  </g>
</svg>
