<svg xmlns="http://www.w3.org/2000/svg" width="53.068" height="55.866" viewBox="0 0 53.068 55.866">
  <g id="logical_icon" transform="translate(-3.003 -1.997)">
    <path id="Path_351" data-name="Path 351" d="M12.311,56.933a.931.931,0,0,0,.931.931H36.518a.931.931,0,0,0,.931-.931V53.208H48.622a.931.931,0,0,0,.931-.931V41.1H55.14a.931.931,0,0,0,.91-1.126L53.278,27.039A25.14,25.14,0,1,0,7.629,41.67,26.139,26.139,0,0,1,12.311,56.933ZM4.982,24.744a23.278,23.278,0,0,1,46.433,2.394.938.938,0,0,0,.021.2l2.551,11.909H48.622a.931.931,0,0,0-.931.931V51.346h-14.9v1.862h2.793V56H14.159a27.836,27.836,0,0,0-5.012-15.41A23.34,23.34,0,0,1,4.982,24.744Z" transform="translate(0 0)"/>
    <path id="Path_352" data-name="Path 352" d="M34.46,29.571l-.692-1.653a8.461,8.461,0,0,0,.394-.953l1.661-.681a.933.933,0,0,0,.57-.744,9.389,9.389,0,0,0,0-2.594.933.933,0,0,0-.57-.744l-1.661-.681a8.526,8.526,0,0,0-.393-.953l.691-1.653a.931.931,0,0,0-.124-.929A10.279,10.279,0,0,0,32.5,16.146a.931.931,0,0,0-.929-.123l-1.654.691a8.507,8.507,0,0,0-.953-.393l-.682-1.661a.93.93,0,0,0-.744-.571,9.189,9.189,0,0,0-2.595,0,.93.93,0,0,0-.744.571l-.682,1.661a8.506,8.506,0,0,0-.953.393l-1.654-.691a.93.93,0,0,0-.929.123,10.319,10.319,0,0,0-1.836,1.836.932.932,0,0,0-.124.93l.692,1.653a8.5,8.5,0,0,0-.394.954L16.66,22.2a.933.933,0,0,0-.57.744,9.39,9.39,0,0,0,0,2.594.933.933,0,0,0,.57.744l1.661.681a8.526,8.526,0,0,0,.393.953l-.691,1.653a.931.931,0,0,0,.124.929,10.279,10.279,0,0,0,1.836,1.837.932.932,0,0,0,.929.123l1.654-.691a8.506,8.506,0,0,0,.953.393l.682,1.661a.93.93,0,0,0,.744.571,9.4,9.4,0,0,0,2.595,0,.93.93,0,0,0,.744-.571l.682-1.661a8.367,8.367,0,0,0,.953-.393l1.654.691a.933.933,0,0,0,.929-.123A10.279,10.279,0,0,0,34.337,30.5a.931.931,0,0,0,.124-.929Zm-1.41-4.164a.929.929,0,0,0-.542.608,6.5,6.5,0,0,1-.579,1.4.934.934,0,0,0-.047.815l.644,1.538a8.491,8.491,0,0,1-.754.754l-1.538-.643a.932.932,0,0,0-.815.047,6.49,6.49,0,0,1-1.4.579.928.928,0,0,0-.607.542l-.636,1.55a6.877,6.877,0,0,1-1.06,0l-.636-1.55a.928.928,0,0,0-.607-.542,6.548,6.548,0,0,1-1.4-.579.934.934,0,0,0-.814-.047l-1.538.643a8.552,8.552,0,0,1-.754-.754l.643-1.538a.934.934,0,0,0-.046-.814,6.472,6.472,0,0,1-.579-1.4.929.929,0,0,0-.542-.608l-1.55-.636c-.015-.186-.021-.361-.021-.53s.006-.343.021-.53l1.55-.636a.929.929,0,0,0,.542-.608,6.5,6.5,0,0,1,.579-1.4.934.934,0,0,0,.047-.815l-.644-1.538a8.547,8.547,0,0,1,.754-.754l1.538.643a.934.934,0,0,0,.814-.047,6.548,6.548,0,0,1,1.4-.579.928.928,0,0,0,.607-.542l.636-1.55a6.877,6.877,0,0,1,1.06,0l.636,1.55a.928.928,0,0,0,.607.542,6.548,6.548,0,0,1,1.4.579.934.934,0,0,0,.814.047l1.538-.643a8.553,8.553,0,0,1,.754.754l-.643,1.538a.934.934,0,0,0,.046.814,6.472,6.472,0,0,1,.579,1.4.929.929,0,0,0,.542.608l1.55.636c.015.186.021.361.021.53s-.006.343-.021.53Z" transform="translate(-0.896 -0.827)"/>
    <path id="Path_353" data-name="Path 353" d="M26.655,20a4.655,4.655,0,1,0,4.655,4.655A4.661,4.661,0,0,0,26.655,20Zm0,7.449a2.793,2.793,0,1,1,2.793-2.793A2.8,2.8,0,0,1,26.655,27.449Z" transform="translate(-1.31 -1.241)" fill="#ff7600"/>
    <path id="Path_354" data-name="Path 354" d="M35.3,36.1,36.4,37.6a14.975,14.975,0,0,0,2.847-2.749l-1.458-1.157A13.131,13.131,0,0,1,35.3,36.1Z" transform="translate(-2.226 -2.185)"/>
    <path id="Path_355" data-name="Path 355" d="M12.63,30.491l1.657-.849A13.04,13.04,0,0,1,25.9,10.676H32.96l-1.2,1.2L33.073,13.2,35.866,10.4a.931.931,0,0,0,0-1.317L33.073,6.293,31.756,7.61l1.2,1.2H25.9A14.893,14.893,0,0,0,12.63,30.491Z" transform="translate(-0.551 -0.296)" fill="#ff7600"/>
    <path id="Path_356" data-name="Path 356" d="M42.191,29.229l-1.795-.5a12.956,12.956,0,0,1-1.36,3.186l1.6.954A14.781,14.781,0,0,0,42.191,29.229Z" transform="translate(-2.484 -1.843)"/>
    <path id="Path_357" data-name="Path 357" d="M15.376,32.97l-1.531,1.061a14.968,14.968,0,0,0,2.667,2.926l1.2-1.426A13.048,13.048,0,0,1,15.376,32.97Z" transform="translate(-0.747 -2.135)"/>
    <path id="Path_358" data-name="Path 358" d="M30.256,38.527l.431,1.811a14.794,14.794,0,0,0,3.7-1.425l-.9-1.632a12.943,12.943,0,0,1-3.231,1.246Z" transform="translate(-1.879 -2.432)"/>
    <path id="Path_359" data-name="Path 359" d="M18.429,38.4a14.829,14.829,0,0,0,3.6,1.661l.547-1.78a12.934,12.934,0,0,1-3.144-1.452Z" transform="translate(-1.063 -2.401)"/>
    <path id="Path_360" data-name="Path 360" d="M28.325,40.774l-.187-1.853a13.074,13.074,0,0,1-1.307.066,10.317,10.317,0,0,1-2.157-.175l-.3,1.837a16.841,16.841,0,0,0,2.461.2c.5,0,1-.025,1.494-.075Z" transform="translate(-1.473 -2.538)"/>
    <path id="Path_361" data-name="Path 361" d="M23,55h1.862v1.862H23Z" transform="translate(-1.379 -3.654)" fill="#ff7600"/>
    <path id="Path_362" data-name="Path 362" d="M27,55h1.862v1.862H27Z" transform="translate(-1.654 -3.654)" fill="#ff7600"/>
    <path id="Path_363" data-name="Path 363" d="M31,55h1.862v1.862H31Z" transform="translate(-1.93 -3.654)" fill="#ff7600"/>
  </g>
</svg>
