<svg xmlns="http://www.w3.org/2000/svg" width="129.462" height="37.346" viewBox="0 0 129.462 37.346">
  <g id="logoo" transform="translate(-249.537 -22)">
    <g id="c" transform="translate(107.396 -95.166)">
      <path id="Path_288" data-name="Path 288" d="M252.727,148.641l8.643-2.027a16.353,16.353,0,0,0-4.783-8.714l-6.071,6.071a10.406,10.406,0,0,1,2.212,4.671" transform="translate(-82.256 -15.736)" fill="#65b670"/>
      <path id="Path_289" data-name="Path 289" d="M219.439,125.222a9.081,9.081,0,0,1,7.124,3.012l6.071-6.071a18.978,18.978,0,0,0-13.2-5c-.162,0-.319.019-.481.023v8.057c.161-.007.318-.024.481-.024" transform="translate(-58.304)" fill="#36a969"/>
      <path id="Path_290" data-name="Path 290" d="M219.439,229.195c-.162,0-.32-.017-.481-.024v8c.161,0,.318.023.481.023a18.633,18.633,0,0,0,13.233-4.96l-6.132-6.132a8.992,8.992,0,0,1-7.1,3.089" transform="translate(-58.304 -82.686)" fill="#9e348a"/>
      <path id="Path_291" data-name="Path 291" d="M261.348,207.868l-8.643-1.707a11.179,11.179,0,0,1-2.289,4.807l6.132,6.132a16.931,16.931,0,0,0,4.8-9.231" transform="translate(-82.182 -67.547)" fill="#74368b"/>
      <path id="Path_292" data-name="Path 292" d="M170.458,224.286l-5.989,5.989a19.087,19.087,0,0,0,13.132,5.518v-8a9.959,9.959,0,0,1-7.143-3.5" transform="translate(-16.947 -81.304)" fill="#fdbd00"/>
      <path id="Path_293" data-name="Path 293" d="M150.944,194.648h-8.8a18.412,18.412,0,0,0,5.381,13.132l5.989-5.989a10.889,10.889,0,0,1-2.567-7.143" transform="translate(0 -58.809)" fill="#d5a514"/>
      <path id="Path_294" data-name="Path 294" d="M177.635,125.32v-8.057a19.081,19.081,0,0,0-13.121,5.528l5.989,5.989a9.974,9.974,0,0,1,7.132-3.461" transform="translate(-16.981 -0.074)" fill="#009ccd"/>
      <path id="Path_295" data-name="Path 295" d="M153.522,146.192l-5.989-5.989a18.42,18.42,0,0,0-5.392,13.121h8.8a10.8,10.8,0,0,1,2.578-7.132" transform="translate(0 -17.485)" fill="#144698"/>
    </g>
    <g id="Logo" transform="translate(176.629 -300.908)">
      <path id="Path_296" data-name="Path 296" d="M129.92,352.818l2.909,1.912-.027.028A6.922,6.922,0,0,1,126.8,358.2a6.734,6.734,0,0,1-2.72-.552,7.047,7.047,0,0,1-3.7-3.7,6.848,6.848,0,0,1,0-5.387,7.047,7.047,0,0,1,3.7-3.7,6.734,6.734,0,0,1,2.72-.552,6.923,6.923,0,0,1,6.007,3.448l.027.026-2.936,1.913-.027-.027a3.941,3.941,0,0,0-1.252-1.615,2.952,2.952,0,0,0-1.818-.619,3.065,3.065,0,0,0-1.36.31,3.442,3.442,0,0,0-1.091.835,4.1,4.1,0,0,0-.727,1.212,3.981,3.981,0,0,0-.269,1.467,3.882,3.882,0,0,0,.269,1.455,3.809,3.809,0,0,0,.727,1.172,3.3,3.3,0,0,0,2.451,1.064,3.184,3.184,0,0,0,1.818-.552,3.467,3.467,0,0,0,1.252-1.549l.027-.053Z" transform="translate(0 -7.286)" fill="#1a1818"/>
      <path id="Path_297" data-name="Path 297" d="M159.981,344.242a6.74,6.74,0,0,1,2.72.553,7.044,7.044,0,0,1,3.7,3.7,6.846,6.846,0,0,1,0,5.387,7.042,7.042,0,0,1-3.7,3.7,6.983,6.983,0,0,1-5.44,0,7.042,7.042,0,0,1-3.7-3.7,6.846,6.846,0,0,1,0-5.387,7.044,7.044,0,0,1,3.7-3.7,6.734,6.734,0,0,1,2.72-.553m0,10.693a2.714,2.714,0,0,0,1.253-.3,3.309,3.309,0,0,0,1.023-.821,4.032,4.032,0,0,0,.7-1.213,4.239,4.239,0,0,0,.256-1.495,4.087,4.087,0,0,0-.256-1.44,3.692,3.692,0,0,0-.7-1.185,3.48,3.48,0,0,0-1.023-.794,2.715,2.715,0,0,0-1.253-.3,2.793,2.793,0,0,0-1.266.3,3.423,3.423,0,0,0-1.037.794,3.7,3.7,0,0,0-.7,1.185,4.067,4.067,0,0,0-.256,1.44,4.22,4.22,0,0,0,.256,1.495,4.039,4.039,0,0,0,.7,1.213,3.258,3.258,0,0,0,1.037.821,2.792,2.792,0,0,0,1.266.3" transform="translate(-19.369 -7.248)" fill="#1a1818"/>
      <path id="Path_298" data-name="Path 298" d="M200.739,345l-.324.538-1.374,2.451-.027-.027a3.858,3.858,0,0,0-3.231-.283,3.559,3.559,0,0,0-1.1.646,3.954,3.954,0,0,0-.822.983,3.454,3.454,0,0,0-.444,1.212v7.407h-3.663V344.458h3.663v1.751a4.834,4.834,0,0,1,4.174-1.966,6.9,6.9,0,0,1,3.125.754Z" transform="translate(-40.815 -7.249)" fill="#1a1818"/>
      <path id="Path_299" data-name="Path 299" d="M221.745,349.926q.889.3,1.63.606a5.641,5.641,0,0,1,1.293.741,3.1,3.1,0,0,1,.862,1.037,3.136,3.136,0,0,1,.31,1.441v.026a3.984,3.984,0,0,1-1.36,3.205,5.7,5.7,0,0,1-3.811,1.158,8.888,8.888,0,0,1-3.016-.53,10.366,10.366,0,0,1-2.774-1.507l-.027-.028.027-.026,1.831-2.891.027.027a5.48,5.48,0,0,0,1.831,1.306,5.413,5.413,0,0,0,2.181.445q1.589,0,1.589-1.021a.775.775,0,0,0-.512-.725,9.221,9.221,0,0,0-1.212-.458,1.031,1.031,0,0,0-.256-.067.945.945,0,0,1-.256-.068q-.808-.215-1.616-.47a5.453,5.453,0,0,1-1.454-.7,3.652,3.652,0,0,1-1.064-1.129,3.337,3.337,0,0,1-.417-1.759v-.054a4.145,4.145,0,0,1,.35-1.719,3.868,3.868,0,0,1,1-1.344,4.574,4.574,0,0,1,1.563-.873,6.29,6.29,0,0,1,2.02-.309,9.174,9.174,0,0,1,2.613.391,8.97,8.97,0,0,1,2.451,1.145v.053l-1.643,2.99-.027-.027a4.488,4.488,0,0,0-1.535-.983,5.215,5.215,0,0,0-1.939-.364,3.879,3.879,0,0,0-.431.027,1.226,1.226,0,0,0-.444.134,1.035,1.035,0,0,0-.337.283.8.8,0,0,0-.134.5.6.6,0,0,0,.215.444,2.415,2.415,0,0,0,.552.377,7.581,7.581,0,0,0,.754.338q.417.16.821.3a.621.621,0,0,1,.175.027c.063.018.122.036.175.053" transform="translate(-55.465 -7.249)" fill="#1a1818"/>
      <path id="Path_300" data-name="Path 300" d="M258.565,344.458v13.467h-3.528v-6.751a3.593,3.593,0,0,0-.3-1.458,3.791,3.791,0,0,0-3.474-2.268,3.565,3.565,0,0,0-1.455.3,4.162,4.162,0,0,0-1.2.8,3.552,3.552,0,0,0-.821,1.189,3.672,3.672,0,0,0-.3,1.473,3.507,3.507,0,0,0,.3,1.433,3.756,3.756,0,0,0,.821,1.19,4.039,4.039,0,0,0,1.2.811,3.558,3.558,0,0,0,1.455.3,3.162,3.162,0,0,0,1.427-.3h.027v.053l1.346,2.4-.027.026a5.158,5.158,0,0,1-3.259,1.023,6.8,6.8,0,0,1-2.693-.538,6.917,6.917,0,0,1-2.209-1.481,7.106,7.106,0,0,1-1.495-2.209,6.912,6.912,0,0,1,0-5.414,7.044,7.044,0,0,1,3.7-3.7,6.67,6.67,0,0,1,2.693-.553,5.457,5.457,0,0,1,2.451.521,5.1,5.1,0,0,1,1.8,1.509v-1.815Z" transform="translate(-72.381 -7.248)" fill="#1a1818"/>
      <path id="Path_301" data-name="Path 301" d="M288.62,348.752a1.4,1.4,0,0,0,.444,1.05,1.473,1.473,0,0,0,1.064.431h2.612v3.124h-2.612a5.041,5.041,0,0,1-1.98-.39,4.98,4.98,0,0,1-1.616-1.078,5.238,5.238,0,0,1-1.091-1.6,4.821,4.821,0,0,1-.4-1.966v-4.039H283.1V341.29h1.939v-4.875h3.582Zm4.121-7.462v2.991h-1.993l-1.67-2.991Z" transform="translate(-95.3 -2.681)" fill="#1a1818"/>
      <path id="Path_302" data-name="Path 302" d="M309.492,331.823h3.583v3.151h-3.583Zm0,5.386h3.583v13.467h-3.583Z" transform="translate(-110.704 0)" fill="#1a1818"/>
    </g>
  </g>
</svg>
