<svg xmlns="http://www.w3.org/2000/svg" width="51.5" height="51.5" viewBox="0 0 51.5 51.5">
  <g id="managment_icon" transform="translate(-1 -1)">
    <path id="Path_364" data-name="Path 364" d="M48.094,30.9H41.766V26.092l-2.189-.515a13.211,13.211,0,0,0-1.147-2.768L39.614,20.9l-1.888-1.888,4.421-5.526A5.81,5.81,0,1,0,39.4,7.276l-14.27-.92a5.8,5.8,0,1,0-.1,1.658l14.27.92a5.785,5.785,0,0,0,1.553,3.509l-4.306,5.383L35.16,16.443l-1.912,1.184a13.214,13.214,0,0,0-2.768-1.148l-.516-2.188h-6.3l-.515,2.188a13.17,13.17,0,0,0-2.768,1.148L18.47,16.443,14.015,20.9,15.2,22.809a13.214,13.214,0,0,0-1.148,2.768l-2.188.515V30.9H5.535L1.382,39.21H5.218V52.5H48.411V39.21h3.836ZM45.089,4.323a4.153,4.153,0,1,1-4.153,4.153A4.158,4.158,0,0,1,45.089,4.323Zm-25.75,6.645a4.153,4.153,0,1,1,4.153-4.153A4.158,4.158,0,0,1,19.339,10.968ZM49.559,37.548H32.312L29.82,32.565H47.067ZM23.946,30.9a3.286,3.286,0,0,1-.454-1.661A3.323,3.323,0,1,1,29.684,30.9Zm-5.252,0a8.307,8.307,0,1,1,16.241,0H31.509a4.984,4.984,0,1,0-9.389,0Zm-5.17-3.5,1.887-.444.121-.494a11.538,11.538,0,0,1,1.345-3.243l.264-.435-1.021-1.65,2.594-2.594,1.65,1.021L20.8,19.3a11.552,11.552,0,0,1,3.243-1.345l.494-.121.444-1.886h3.668l.444,1.887.494.121A11.538,11.538,0,0,1,32.83,19.3l.435.264,1.65-1.021,2.594,2.594-1.021,1.65.264.435A11.556,11.556,0,0,1,38.1,26.47l.121.494,1.886.444v3.5H36.639a10.088,10.088,0,0,0,.144-1.661,9.968,9.968,0,1,0-19.935,0,10.088,10.088,0,0,0,.144,1.661H13.524ZM6.562,32.565H25.471l-2.492,4.984H4.07Zm.317,6.645H24.005l2.809-5.618V50.839H6.879ZM46.75,50.839H28.476V33.591l2.809,5.618H46.75Z" transform="translate(-0.065)"/>
    <path id="Path_365" data-name="Path 365" d="M53.492,11.984A2.492,2.492,0,1,0,51,9.492,2.495,2.495,0,0,0,53.492,11.984Zm0-3.323a.831.831,0,1,1-.831.831A.832.832,0,0,1,53.492,8.661Z" transform="translate(-8.468 -1.016)" fill="#ff7600"/>
    <path id="Path_366" data-name="Path 366" d="M22.492,5a2.492,2.492,0,1,0,2.492,2.492A2.495,2.495,0,0,0,22.492,5Zm0,3.323a.831.831,0,1,1,.831-.831A.832.832,0,0,1,22.492,8.323Z" transform="translate(-3.218 -0.677)" fill="#ff7600"/>
    <path id="Path_367" data-name="Path 367" d="M5.153,23.306h7.476V19.153A4.158,4.158,0,0,0,8.476,15H5.153a4.153,4.153,0,1,0,0,8.306Zm0-6.645H8.476a2.5,2.5,0,0,1,2.492,2.492v2.492H5.153a2.492,2.492,0,1,1,0-4.984Z" transform="translate(0 -2.371)"/>
    <path id="Path_368" data-name="Path 368" d="M5,19H6.661v1.661H5Z" transform="translate(-0.677 -3.048)" fill="#ff7600"/>
    <path id="Path_369" data-name="Path 369" d="M9,19h1.661v1.661H9Z" transform="translate(-1.355 -3.048)" fill="#ff7600"/>
    <path id="Path_370" data-name="Path 370" d="M53.153,19A4.158,4.158,0,0,0,49,23.153v4.153h7.476a4.153,4.153,0,0,0,0-8.306Zm5.815,4.153a2.5,2.5,0,0,1-2.492,2.492H50.661V23.153a2.5,2.5,0,0,1,2.492-2.492h3.323A2.5,2.5,0,0,1,58.968,23.153Z" transform="translate(-8.129 -3.048)"/>
    <path id="Path_371" data-name="Path 371" d="M57,23h1.661v1.661H57Z" transform="translate(-9.484 -3.726)" fill="#ff7600"/>
    <path id="Path_372" data-name="Path 372" d="M53,23h1.661v1.661H53Z" transform="translate(-8.806 -3.726)" fill="#ff7600"/>
    <path id="Path_373" data-name="Path 373" d="M10,49v8.306H26.613V49Zm14.952,6.645H11.661V50.661h13.29Z" transform="translate(-1.524 -8.129)" fill="#ff7600"/>
    <path id="Path_374" data-name="Path 374" d="M24,53h1.661v1.661H24Z" transform="translate(-3.895 -8.806)" fill="#ff7600"/>
    <path id="Path_375" data-name="Path 375" d="M20,53h1.661v1.661H20Z" transform="translate(-3.218 -8.806)" fill="#ff7600"/>
    <path id="Path_376" data-name="Path 376" d="M16,53h1.661v1.661H16Z" transform="translate(-2.54 -8.806)" fill="#ff7600"/>
    <path id="Path_377" data-name="Path 377" d="M52,57h1.661v1.661H52Z" transform="translate(-8.637 -9.484)" fill="#ff7600"/>
    <path id="Path_378" data-name="Path 378" d="M48,57h1.661v1.661H48Z" transform="translate(-7.96 -9.484)" fill="#ff7600"/>
    <path id="Path_379" data-name="Path 379" d="M44,57h1.661v1.661H44Z" transform="translate(-7.282 -9.484)" fill="#ff7600"/>
    <path id="Path_380" data-name="Path 380" d="M44,53h8.306v1.661H44Z" transform="translate(-7.282 -8.806)" fill="#ff7600"/>
  </g>
</svg>
