<svg xmlns="http://www.w3.org/2000/svg" width="14.611" height="17.345" viewBox="0 0 14.611 17.345">
  <g id="notification" transform="translate(-40.358 0)">
    <path id="Path_596" data-name="Path 596" d="M359.266,6.8l.974-.291a7.626,7.626,0,0,0-3.382-4.355l-.525.87A6.612,6.612,0,0,1,359.266,6.8Z" transform="translate(-305.271 -2.08)"/>
    <path id="Path_597" data-name="Path 597" d="M44.264,3.023l-.525-.87a7.626,7.626,0,0,0-3.382,4.355l.974.291a6.612,6.612,0,0,1,2.933-3.775Z" transform="translate(0 -2.08)"/>
    <path id="Path_598" data-name="Path 598" d="M62.016,6.606v5.447a1.219,1.219,0,0,1-.359.867A2.229,2.229,0,0,0,61,14.507v.806h4.116a2.541,2.541,0,0,0,4.979,0h4.116v-.806a2.228,2.228,0,0,0-.657-1.586,1.219,1.219,0,0,1-.359-.867V6.606A5.6,5.6,0,0,0,68.114,1.04V0H67.1V1.04a5.6,5.6,0,0,0-5.082,5.566Zm5.59,9.723a1.527,1.527,0,0,1-1.437-1.017h2.874A1.527,1.527,0,0,1,67.606,16.329ZM72.18,6.606v5.447a2.228,2.228,0,0,0,.657,1.586,1.218,1.218,0,0,1,.341.657H62.034a1.217,1.217,0,0,1,.341-.657,2.229,2.229,0,0,0,.657-1.586V6.606a4.573,4.573,0,1,1,9.147,0Z" transform="translate(-19.943)"/>
  </g>
</svg>
