<svg id="online-learning" xmlns="http://www.w3.org/2000/svg" width="48.813" height="48.813" viewBox="0 0 48.813 48.813">
  <circle id="Ellipse_16" data-name="Ellipse 16" cx="1" cy="1" r="1" transform="translate(23.406 40.406)" fill="#ff7600"/>
  <path id="Path_768" data-name="Path 768" d="M99.75,69.753,84.5,63.079a.953.953,0,0,0-.764,0L68.485,69.75a.967.967,0,0,0-.578.876v5.884A2.865,2.865,0,0,0,66,79.207V83.02a.953.953,0,0,0,.953.953h3.813a.953.953,0,0,0,.953-.953V79.207a2.865,2.865,0,0,0-1.907-2.7V72.084l5.72,2.5v6.527a.953.953,0,0,0,.567.871c.183.081,4.522,1.989,8.014,1.989s7.831-1.908,8.014-1.989a.953.953,0,0,0,.567-.871V74.587L99.75,71.5a.953.953,0,0,0,0-1.747ZM69.813,82.067H67.907v-2.86a.953.953,0,0,1,1.907,0Zm20.974-1.59a20.769,20.769,0,0,1-6.674,1.59,20.818,20.818,0,0,1-6.674-1.59V75.421l6.291,2.753a.954.954,0,0,0,.764,0l6.291-2.753Zm-6.674-4.217L71.239,70.626l12.875-5.633,12.875,5.633Z" transform="translate(-59.708 -56.993)" fill="#ff7600"/>
  <path id="Path_769" data-name="Path 769" d="M375.152,203h-8.2a.953.953,0,0,0,0,1.907h8.2a.953.953,0,0,0,0-1.907Z" transform="translate(-331.107 -183.647)"/>
  <path id="Path_770" data-name="Path 770" d="M375.152,243h-8.2a.953.953,0,0,0,0,1.907h8.2a.953.953,0,0,0,0-1.907Z" transform="translate(-331.107 -219.833)"/>
  <ellipse id="Ellipse_17" data-name="Ellipse 17" cx="1" cy="0.5" rx="1" ry="0.5" transform="translate(23.406 0.406)"/>
  <path id="Path_771" data-name="Path 771" d="M47.859,0H28.7a.953.953,0,0,0,0,1.907H46.906V31.08h-45V1.907H20.116a.953.953,0,0,0,0-1.907H.953A.953.953,0,0,0,0,.953v36.8a.953.953,0,0,0,.953.953H19.443l-1.547,8.2H14.873a.953.953,0,0,0,0,1.907H33.94a.953.953,0,0,0,0-1.907H30.917l-1.547-8.2H47.859a.953.953,0,0,0,.953-.953V.953A.953.953,0,0,0,47.859,0ZM19.836,46.906l1.547-8.2h6.046l1.547,8.2ZM46.906,36.8h-45V32.987h45Z"/>
</svg>
