<svg xmlns="http://www.w3.org/2000/svg" width="28.71" height="20.102" viewBox="0 0 28.71 20.102">
  <path id="orange_youtube" d="M28.118-2.937a3.6,3.6,0,0,0-2.53-2.531c-2.247-.615-11.233-.615-11.233-.615s-8.986,0-11.233.591A3.67,3.67,0,0,0,.591-2.937,37.9,37.9,0,0,0,0,3.969a37.76,37.76,0,0,0,.591,6.905A3.6,3.6,0,0,0,3.122,13.4c2.27.615,11.233.615,11.233.615s8.986,0,11.233-.591a3.6,3.6,0,0,0,2.531-2.53,37.911,37.911,0,0,0,.591-6.905A35.976,35.976,0,0,0,28.118-2.937ZM11.493,8.273V-.335l7.473,4.3Zm0,0" transform="translate(0 6.082)" fill="#ff7600"/>
</svg>
