<svg xmlns="http://www.w3.org/2000/svg" width="13.072" height="24.179" viewBox="0 0 13.072 24.179">
  <g id="orange_face" transform="translate(-22.077)">
    <path id="Path_755" data-name="Path 755" d="M34.657.005,31.522,0c-3.523,0-5.8,2.336-5.8,5.95V8.694H22.57a.493.493,0,0,0-.493.493v3.975a.493.493,0,0,0,.493.493h3.153v10.03a.493.493,0,0,0,.493.493h4.113a.493.493,0,0,0,.493-.493V13.655h3.686A.493.493,0,0,0,35,13.162l0-3.975a.493.493,0,0,0-.493-.493H30.822V6.368c0-1.118.266-1.685,1.723-1.685h2.112a.493.493,0,0,0,.493-.493V.5A.493.493,0,0,0,34.657.005Z" fill="#ff7600"/>
  </g>
</svg>
