<svg xmlns="http://www.w3.org/2000/svg" width="31.997" height="20" viewBox="0 0 31.997 20">
  <g id="orange_behance" transform="translate(0 -95.979)">
    <g id="Group_1999" data-name="Group 1999" transform="translate(0 95.979)">
      <g id="Group_1998" data-name="Group 1998">
        <path id="Path_765" data-name="Path 765" d="M13.164,105.019a4.8,4.8,0,0,0,1.51-1.108,4.3,4.3,0,0,0,.914-2.874,4.918,4.918,0,0,0-.906-2.978q-1.512-2.028-5.126-2.08H0v19.506H8.91a13.932,13.932,0,0,0,2.794-.262,5.5,5.5,0,0,0,2.234-.98,5.409,5.409,0,0,0,1.4-1.534,5.636,5.636,0,0,0,.882-3.11,5.117,5.117,0,0,0-.77-2.858A4.445,4.445,0,0,0,13.164,105.019ZM3.942,99.367h4.3a7.588,7.588,0,0,1,2.338.3,1.75,1.75,0,0,1,1.062,1.8,1.837,1.837,0,0,1-.8,1.712,4.034,4.034,0,0,1-2.092.484H3.942Zm6.806,12.39a4.714,4.714,0,0,1-2,.344h-4.8v-5.2H8.81a5.08,5.08,0,0,1,1.98.328,2.092,2.092,0,0,1,1.258,2.094A2.452,2.452,0,0,1,10.748,111.757Z" transform="translate(0 -95.979)" fill="#ff7600"/>
        <rect id="Rectangle_1636" data-name="Rectangle 1636" width="8.474" height="2.428" transform="translate(20.448 0.91)" fill="#ff7600"/>
        <path id="Path_766" data-name="Path 766" d="M294.246,176.971a6.959,6.959,0,0,0-1.168-2.982,5.888,5.888,0,0,0-2.524-2.134,8.356,8.356,0,0,0-3.44-.676,7.119,7.119,0,0,0-5.228,2,7.759,7.759,0,0,0-2.014,5.752q0,4,2.234,5.774a8.025,8.025,0,0,0,5.15,1.774,7.168,7.168,0,0,0,5.5-2.1,4.732,4.732,0,0,0,1.416-2.608h-3.9a3.148,3.148,0,0,1-.788.992,3.268,3.268,0,0,1-2.12.66,3.919,3.919,0,0,1-2.11-.544,3.446,3.446,0,0,1-1.532-3.042h10.654A18.36,18.36,0,0,0,294.246,176.971Zm-10.43.374a3.91,3.91,0,0,1,1.02-2.232,3.074,3.074,0,0,1,2.282-.826,3.4,3.4,0,0,1,2.27.776,3.154,3.154,0,0,1,1.018,2.282Z" transform="translate(-262.38 -166.479)" fill="#ff7600"/>
      </g>
    </g>
  </g>
</svg>
