<svg xmlns="http://www.w3.org/2000/svg" width="23.057" height="21.062" viewBox="0 0 23.057 21.062">
  <g id="orange_linked" transform="translate(0 -23.916)">
    <g id="linked" transform="translate(0 23.916)">
      <path id="Path_756" data-name="Path 756" d="M.749,193.449h3a.749.749,0,0,0,.749-.749V179.6a.749.749,0,0,0-.749-.749h-3A.749.749,0,0,0,0,179.6v13.1A.749.749,0,0,0,.749,193.449Z" transform="translate(0 -172.387)" fill="#ff7600"/>
      <path id="Path_757" data-name="Path 757" d="M.749,28.075h3a.749.749,0,0,0,.749-.749V24.665a.749.749,0,0,0-.749-.749h-3A.749.749,0,0,0,0,24.665v2.662A.749.749,0,0,0,.749,28.075Z" transform="translate(0 -23.916)" fill="#ff7600"/>
      <path id="Path_758" data-name="Path 758" d="M195.9,171.549a4.558,4.558,0,0,0-1.864-1.368,6.747,6.747,0,0,0-2.719-.536,6.66,6.66,0,0,0-5.118,2.305c-.278.306-.481.239-.481-.175v-1a.749.749,0,0,0-.749-.749h-2.678a.749.749,0,0,0-.749.749v13.1a.749.749,0,0,0,.749.749h3a.749.749,0,0,0,.749-.749v-4.557a14.659,14.659,0,0,1,.344-3.9,3.223,3.223,0,0,1,1.272-1.7,3.6,3.6,0,0,1,2.1-.64,2.674,2.674,0,0,1,1.56.448,2.5,2.5,0,0,1,.936,1.256,13.4,13.4,0,0,1,.288,3.559v5.532a.749.749,0,0,0,.749.749h3a.749.749,0,0,0,.749-.749v-7.42a14.052,14.052,0,0,0-.248-3.023A4.952,4.952,0,0,0,195.9,171.549Z" transform="translate(-173.971 -163.566)" fill="#ff7600"/>
    </g>
  </g>
</svg>
