<svg id="orange_dribbble" xmlns="http://www.w3.org/2000/svg" width="25.764" height="25.764" viewBox="0 0 25.764 25.764">
  <path id="Path_759" data-name="Path 759" d="M177.383,5.786a5.485,5.485,0,0,0,1.409-2.742,12.631,12.631,0,0,0-12.8-2.185,32.894,32.894,0,0,1,5.941,8.275A13.47,13.47,0,0,0,177.383,5.786Zm0,0" transform="translate(-157.636)" fill="#ff7600"/>
  <path id="Path_760" data-name="Path 760" d="M303.355,87.109a14.8,14.8,0,0,1-5.9,3.711c.306.67.587,1.354.851,2.048a18.579,18.579,0,0,1,3.907-.426,18.355,18.355,0,0,1,6.025,1.012c0-.086.013-.17.013-.257a12.766,12.766,0,0,0-3.36-8.626A7.485,7.485,0,0,1,303.355,87.109Zm0,0" transform="translate(-282.485 -80.315)" fill="#ff7600"/>
  <path id="Path_761" data-name="Path 761" d="M5.848,38.946a29.9,29.9,0,0,0,5.09.447,27.422,27.422,0,0,0,7.457-1.021A31.238,31.238,0,0,0,12.429,30.3,13.1,13.1,0,0,0,5.848,38.946Zm0,0" transform="translate(-5.553 -28.776)" fill="#ff7600"/>
  <path id="Path_762" data-name="Path 762" d="M333.74,272.056a16.769,16.769,0,0,0-5.9-1.057,17.169,17.169,0,0,0-3.4.344,37.33,37.33,0,0,1,1.872,10.64A12.929,12.929,0,0,0,333.74,272.056Zm0,0" transform="translate(-308.119 -257.363)" fill="#ff7600"/>
  <path id="Path_763" data-name="Path 763" d="M0,220.116a13,13,0,0,0,4.754,9.929,10.912,10.912,0,0,1,2.674-5.62,15.164,15.164,0,0,1,6.923-4.267c-.256-.66-.535-1.306-.83-1.944a28.775,28.775,0,0,1-8.136,1.147A31.423,31.423,0,0,1,.062,218.9c-.038.4-.062.809-.062,1.221Zm0,0" transform="translate(0 -207.234)" fill="#ff7600"/>
  <path id="Path_764" data-name="Path 764" d="M124.846,288.925a9.119,9.119,0,0,0-2.393,5.616,12.748,12.748,0,0,0,10.528,1.388,35.845,35.845,0,0,0-1.836-10.855A13.659,13.659,0,0,0,124.846,288.925Zm0,0" transform="translate(-116.291 -270.729)" fill="#ff7600"/>
</svg>
