<svg xmlns="http://www.w3.org/2000/svg" width="55.664" height="55.866" viewBox="0 0 55.664 55.866">
  <g id="talking" transform="translate(0 0.134)">
    <path id="Path_772" data-name="Path 772" d="M209.046,252.523a6.523,6.523,0,1,0-6.523,6.523A6.531,6.531,0,0,0,209.046,252.523Zm-6.523,4.349a4.349,4.349,0,1,1,4.349-4.349A4.354,4.354,0,0,1,202.523,256.872Z" transform="translate(-174.691 -219.187)" fill="#ff7600"/>
    <path id="Path_773" data-name="Path 773" d="M45.046,252.523a6.523,6.523,0,1,0-6.523,6.523A6.531,6.531,0,0,0,45.046,252.523Zm-6.523,4.349a4.349,4.349,0,1,1,4.349-4.349A4.354,4.354,0,0,1,38.523,256.872Z" transform="translate(-28.521 -219.187)"/>
    <path id="Path_774" data-name="Path 774" d="M373.046,252.523a6.523,6.523,0,1,0-6.523,6.523A6.531,6.531,0,0,0,373.046,252.523Zm-6.523,4.349a4.349,4.349,0,1,1,4.349-4.349A4.354,4.354,0,0,1,366.523,256.872Z" transform="translate(-320.861 -219.187)"/>
    <path id="Path_775" data-name="Path 775" d="M45.662,366a10.124,10.124,0,0,0-8.915,5.378,10.078,10.078,0,0,0-17.83,0A10.119,10.119,0,0,0,10,366a9.965,9.965,0,0,0-10,9.785v5a1.087,1.087,0,0,0,1.087,1.087h53.49a1.087,1.087,0,0,0,1.087-1.087v-5A9.965,9.965,0,0,0,45.662,366Zm-17.83,2.174a7.825,7.825,0,0,1,7.828,7.61V379.7H20v-3.914A7.825,7.825,0,0,1,27.832,368.174Zm-25.658,7.61a7.831,7.831,0,0,1,15.656,0V379.7H2.174ZM53.49,379.7H37.834v-3.914a7.831,7.831,0,0,1,15.656,0Z" transform="translate(0 -326.141)"/>
    <path id="Path_776" data-name="Path 776" d="M229.262,60a3.262,3.262,0,1,0,3.262,3.262A3.265,3.265,0,0,0,229.262,60Zm0,4.349a1.087,1.087,0,1,1,1.087-1.087A1.088,1.088,0,0,1,229.262,64.349Z" transform="translate(-201.429 -53.409)" fill="#ff7600"/>
    <path id="Path_777" data-name="Path 777" d="M146,63.262A3.262,3.262,0,1,0,149.262,60,3.265,3.265,0,0,0,146,63.262Zm4.349,0a1.087,1.087,0,1,1-1.087-1.087A1.088,1.088,0,0,1,150.349,63.262Z" transform="translate(-130.127 -53.409)" fill="#ff7600"/>
    <path id="Path_778" data-name="Path 778" d="M312.523,63.262a3.262,3.262,0,1,0-3.262,3.262A3.265,3.265,0,0,0,312.523,63.262Zm-4.349,0a1.087,1.087,0,1,1,1.087,1.087A1.088,1.088,0,0,1,308.174,63.262Z" transform="translate(-272.732 -53.409)" fill="#ff7600"/>
    <circle id="Ellipse_18" data-name="Ellipse 18" cx="1" cy="1" r="1" transform="translate(26.832 -0.134)"/>
    <path id="Path_779" data-name="Path 779" d="M70.008,18.049l-1.177,2.708-1.177-2.708a1.087,1.087,0,0,0-1-.654H55.785a7.61,7.61,0,0,1,0-15.221h8.154a1.087,1.087,0,0,0,0-2.174H55.785a9.785,9.785,0,0,0,0,19.57H65.944l1.89,4.347a1.087,1.087,0,0,0,1.994,0l1.89-4.347H81.877a9.785,9.785,0,1,0,0-19.57H73.724a1.087,1.087,0,0,0,0,2.174h8.154a7.61,7.61,0,1,1,0,15.221H71.006A1.087,1.087,0,0,0,70.008,18.049Z" transform="translate(-40.999 0.068)"/>
  </g>
</svg>
