<svg xmlns="http://www.w3.org/2000/svg" width="18.273" height="20.339" viewBox="0 0 18.273 20.339">
  <g id="time" transform="translate(-26.001)">
    <g id="Group_119" data-name="Group 119" transform="translate(26.001)">
      <g id="Group_118" data-name="Group 118">
        <path id="Path_385" data-name="Path 385" d="M41.6,4.712A9.061,9.061,0,0,0,35.734,2.05V1.192h.874a.6.6,0,1,0,0-1.192h-2.94a.6.6,0,1,0,0,1.192h.874V2.05A9.042,9.042,0,0,0,30.3,3.413l-.566-.567a1.458,1.458,0,0,0-2.064,0l-.861.863a1.46,1.46,0,0,0,0,2.06l.57.571A9.137,9.137,0,1,0,41.6,4.712ZM27.656,4.551l.861-.863a.266.266,0,0,1,.377,0l.432.433q-.336.278-.649.591t-.588.648l-.432-.433A.266.266,0,0,1,27.656,4.551Zm7.482,14.6a7.963,7.963,0,1,1,7.945-7.963A7.963,7.963,0,0,1,35.138,19.147Z" transform="translate(-26.001)"/>
      </g>
    </g>
    <g id="Group_121" data-name="Group 121" transform="translate(28.305 4.339)">
      <g id="Group_120" data-name="Group 120">
        <path id="Path_386" data-name="Path 386" d="M90.832,109.226a6.846,6.846,0,1,0,6.833,6.846A6.847,6.847,0,0,0,90.832,109.226Zm.6,12.468V121a.6.6,0,1,0-1.192,0v.7a5.658,5.658,0,0,1-5.014-5.027h.684a.6.6,0,0,0,0-1.192h-.684a5.658,5.658,0,0,1,5.014-5.027v.7a.6.6,0,1,0,1.192,0v-.7a5.658,5.658,0,0,1,5.014,5.027h-.684a.6.6,0,1,0,0,1.192h.684A5.658,5.658,0,0,1,91.428,121.694Z" transform="translate(-83.999 -109.226)"/>
      </g>
    </g>
    <g id="Group_123" data-name="Group 123" transform="translate(34.575 7.835)">
      <g id="Group_122" data-name="Group 122">
        <path id="Path_387" data-name="Path 387" d="M243.87,200.236h-.841v-2.41a.6.6,0,1,0-1.192,0v3.006a.6.6,0,0,0,.6.6h1.437a.6.6,0,0,0,0-1.192Z" transform="translate(-241.838 -197.23)"/>
      </g>
    </g>
  </g>
</svg>
