<svg xmlns="http://www.w3.org/2000/svg" width="18.115" height="14.718" viewBox="0 0 18.115 14.718">
  <g id="twitter" transform="translate(0 -48)">
    <g id="Group_75" data-name="Group 75" transform="translate(0 48)">
      <path id="Path_309" data-name="Path 309" d="M18.115,49.742a7.743,7.743,0,0,1-2.14.586,3.693,3.693,0,0,0,1.634-2.053,7.422,7.422,0,0,1-2.355.9A3.713,3.713,0,0,0,8.83,51.715a3.824,3.824,0,0,0,.086.847,10.512,10.512,0,0,1-7.655-3.884A3.715,3.715,0,0,0,2.4,53.64a3.667,3.667,0,0,1-1.678-.457v.041A3.731,3.731,0,0,0,3.7,56.873,3.706,3.706,0,0,1,2.726,57a3.284,3.284,0,0,1-.7-.063,3.749,3.749,0,0,0,3.47,2.587A7.462,7.462,0,0,1,.889,61.1,6.956,6.956,0,0,1,0,61.052a10.455,10.455,0,0,0,5.7,1.667,10.5,10.5,0,0,0,10.57-10.568c0-.164-.006-.323-.014-.48A7.409,7.409,0,0,0,18.115,49.742Z" transform="translate(0 -48)"/>
    </g>
  </g>
</svg>
