<svg id="uk" xmlns="http://www.w3.org/2000/svg" width="21.345" height="21.345" viewBox="0 0 21.345 21.345">
  <path id="Path_310" data-name="Path 310" d="M16.676,21.345H4.669A4.669,4.669,0,0,1,0,16.676V4.669A4.669,4.669,0,0,1,4.669,0H16.676a4.669,4.669,0,0,1,4.669,4.669V16.676A4.669,4.669,0,0,1,16.676,21.345Z" fill="#41479b"/>
  <g id="Group_76" data-name="Group 76">
    <path id="Path_311" data-name="Path 311" d="M305.409,300.739v-1.025l-3.311-2.169h3.311v-1.123h-8.988v8.988h1.123v-6.818l7.126,4.669a4.645,4.645,0,0,0,.573-1.288" transform="translate(-284.063 -284.063)" fill="#f5f5f5"/>
    <path id="Path_312" data-name="Path 312" d="M.314,302.425a4.658,4.658,0,0,0,.424.834l7.126-4.669v6.818H8.987v-8.988H0v1.123H3.311L0,299.714v1.026a4.718,4.718,0,0,0,.03.531" transform="translate(0 -284.063)" fill="#f5f5f5"/>
    <path id="Path_313" data-name="Path 313" d="M0,4.828v.867L3.311,7.864H0V8.988H8.988V0H7.864V6.818L.738,2.149A4.643,4.643,0,0,0,.13,3.573" fill="#f5f5f5"/>
    <path id="Path_314" data-name="Path 314" d="M305.088,2.967a4.654,4.654,0,0,0-.418-.818l-7.126,4.669V0h-1.123V8.988h8.988V7.864H302.1l3.311-2.169V4.669a4.714,4.714,0,0,0-.032-.55" transform="translate(-284.063)" fill="#f5f5f5"/>
  </g>
  <g id="Group_77" data-name="Group 77">
    <path id="Path_315" data-name="Path 315" d="M12.358,0H8.988V8.988H0v3.37H8.988v8.988h3.37V12.358h8.988V8.988H12.358Z" fill="#ff4b55"/>
    <path id="Path_316" data-name="Path 316" d="M6.464,323.368.725,327.094a4.639,4.639,0,0,0,.284,1.155l7.519-4.881H6.464Z" transform="translate(-0.695 -309.887)" fill="#ff4b55"/>
    <path id="Path_317" data-name="Path 317" d="M344.465,323.368l6.82,4.427a4.675,4.675,0,0,0,.165-1.232h0l-4.921-3.194Z" transform="translate(-330.104 -309.887)" fill="#ff4b55"/>
    <path id="Path_318" data-name="Path 318" d="M6.741,89.991.13,85.7A4.679,4.679,0,0,0,0,86.8v.159l4.677,3.036Z" transform="translate(0 -82.127)" fill="#ff4b55"/>
    <path id="Path_319" data-name="Path 319" d="M325.431,76.067l5.768-3.744a4.641,4.641,0,0,0-.288-1.153l-7.544,4.9Z" transform="translate(-309.887 -68.203)" fill="#ff4b55"/>
  </g>
</svg>
